<?xml version="1.0" encoding="UTF-8"?>
<svg width="32px" height="32px" viewBox="0 0 32 32" version="1.1" xmlns="http://www.w3.org/2000/svg" xmlns:xlink="http://www.w3.org/1999/xlink">
    <title>list_boy_icon</title>
    <g id="页面-1" stroke="none" stroke-width="1" fill="none" fill-rule="evenodd">
        <g id="门店详情-门店经纪人" transform="translate(-230.000000, -914.000000)">
            <g id="编组-7" transform="translate(0.000000, 608.000000)">
                <g id="编组-3备份-2" transform="translate(30.000000, 282.000000)">
                    <g id="编组-12" transform="translate(200.000000, 24.000000)">
                        <rect id="矩形" fill="#D8D8D8" opacity="0" x="0" y="0" width="32" height="32"></rect>
                        <path d="M27.9999534,5.58450552 C28.0024182,5.31555794 27.9069256,5.05108683 27.7338877,4.84776655 C27.5486315,4.63040894 27.2826533,4.49304755 27.0009814,4.46933882 C26.9970987,4.4688967 26.9931345,4.46853748 26.9892518,4.46812299 L20.6777805,4.00292906 C20.0779718,3.95882751 19.5560072,4.41794228 19.512483,5.0286492 C19.4689859,5.63946665 19.9202746,6.17042605 20.5204634,6.21469339 L24.4493443,6.50433774 L19.7803347,11.2378759 C18.1048836,9.69937862 15.8856378,8.76274581 13.4513233,8.76274581 C8.23143249,8.76274581 4,13.0691401 4,18.3813591 C4,23.6935781 8.23145964,28 13.4513233,28 C18.6710512,28 22.9024837,23.6935781 22.9024837,18.3813591 C22.9024837,16.3467194 22.2818226,14.4598585 21.2226611,12.9058041 L25.6203436,8.44715449 L25.3724484,12.0443042 C25.3302818,12.6551216 25.7828738,13.185031 26.3830897,13.2279167 C26.4090196,13.2296576 26.4348137,13.2306523 26.4604993,13.2306523 C27.0274543,13.2306523 27.5058133,12.7838617 27.5461064,12.1994057 L27.9974766,5.65165261 C27.99897,5.62932551 27.9996216,5.60680498 27.9999534,5.58450552 C27.9999534,5.57635392 27.9999534,5.58829118 27.9999534,5.58450552 L27.9999534,5.58450552 L27.9999534,5.58450552 Z M19.9020534,21.105479 C19.5495176,21.9387461 19.0444838,22.6875443 18.4009604,23.3311486 C17.7574369,23.9746745 17.0086937,24.479684 16.1753252,24.8322472 C15.3136786,25.1965712 14.3972007,25.3813729 13.4511901,25.3813729 C12.5052579,25.3813729 11.5888584,25.1965974 10.7271856,24.8322472 C9.89379097,24.4797101 9.14504779,23.9746745 8.5014982,23.3311486 C7.85787021,22.6875443 7.35286254,21.9387461 7.00043133,21.105479 C6.63597799,20.2438292 6.45125542,19.327191 6.45125542,18.3813598 C6.45125542,17.4354764 6.63597799,16.518995 7.00043133,15.657319 C7.35286254,14.8239474 7.85787021,14.0751753 8.5014982,13.4315449 C9.14504779,12.7879929 9.89379097,12.2829834 10.7271856,11.930577 C11.5888584,11.5661223 12.5052579,11.3813729 13.4511901,11.3813729 C14.3972007,11.3813729 15.3136786,11.5660962 16.1753252,11.930577 C17.0086937,12.2829834 17.7574369,12.7880191 18.4009604,13.4315449 C19.0444838,14.0751753 19.5494915,14.8239474 19.9020534,15.657319 C20.2665067,16.5190212 20.4512554,17.4354764 20.4512554,18.3813598 C20.4512554,19.327191 20.2665067,20.2438553 19.9020534,21.105479 L19.9020534,21.105479 Z" id="形状" fill="#57B2FE" fill-rule="nonzero"></path>
                    </g>
                </g>
            </g>
        </g>
    </g>
</svg>