<?xml version="1.0" encoding="UTF-8"?>
<svg width="64px" height="64px" viewBox="0 0 64 64" version="1.1" xmlns="http://www.w3.org/2000/svg" xmlns:xlink="http://www.w3.org/1999/xlink">
    <title>list_ddh1_icon</title>
    <g id="页面-1" stroke="none" stroke-width="1" fill="none" fill-rule="evenodd">
        <g id="门店详情-门店经纪人" transform="translate(-636.000000, -640.000000)">
            <g id="编组-7" transform="translate(0.000000, 608.000000)">
                <g id="编组-3" transform="translate(30.000000, 24.000000)">
                    <g id="list_ddh1_icon" transform="translate(606.000000, 8.000000)">
                        <rect id="矩形" fill="#D8D8D8" opacity="0" x="12" y="12" width="40" height="40"></rect>
                        <circle id="椭圆形" fill-opacity="0.1" fill="#2C53DA" cx="32" cy="32" r="32"></circle>
                        <path d="M21.8354167,29.7087787 C24.5625,35.0622616 28.9541667,39.4584993 34.3020833,42.188421 L38.4458333,38.0403581 C38.9416667,37.5440087 39.7208333,37.366741 40.3583333,37.5794622 C42.4833333,38.2885328 44.7854167,38.6430681 47.1229167,38.6430681 C48.15,38.6430681 49,39.4939528 49,40.5221051 L49,47.1164616 C49,48.144614 48.15,48.9954517 47.1229167,48.9954517 C29.3791667,49.0309522 15,34.6368193 15,16.8746011 C15,15.8464487 15.85,14.9953199 16.8770833,14.9953199 L23.5,14.9953199 C24.5270833,14.9953199 25.3770833,15.8109952 25.3770833,16.8391475 C25.3770833,19.214534 25.7666667,21.4835599 26.4395833,23.6107716 C26.6520833,24.2843887 26.5104167,24.9934593 25.9791667,25.5252622 L21.8354167,29.7087787 Z" id="路径" fill="#2C53DA" fill-rule="nonzero"></path>
                    </g>
                </g>
            </g>
        </g>
    </g>
</svg>