<?xml version="1.0" encoding="UTF-8"?>
<svg width="32px" height="32px" viewBox="0 0 32 32" version="1.1" xmlns="http://www.w3.org/2000/svg" xmlns:xlink="http://www.w3.org/1999/xlink">
    <title>list_girl_icon</title>
    <g id="页面-1" stroke="none" stroke-width="1" fill="none" fill-rule="evenodd">
        <g id="门店详情-门店经纪人" transform="translate(-230.000000, -656.000000)">
            <g id="编组-7" transform="translate(0.000000, 608.000000)">
                <g id="编组-3" transform="translate(30.000000, 24.000000)">
                    <g id="编组-11" transform="translate(200.000000, 24.000000)">
                        <rect id="矩形" fill="#D8D8D8" opacity="0" x="0" y="0" width="32" height="32"></rect>
                        <path d="M15.9999366,3 C11.0299917,3 7,7.02999774 7,11.9999185 C7,16.6279339 10.5060142,20.3959267 15.0000106,20.8979181 L15.0000106,22.9999774 L10.9999261,22.9999774 C10.4480373,22.9999774 10.0000317,23.4480154 10.0000317,24.0000317 C10.0000317,24.5519212 10.4480373,24.9999593 10.9999261,24.9999593 L15.0000106,24.9999593 L15.0000106,28.9999457 C15.0000106,29.5520253 15.4480479,30 15.9999366,30 C16.5519838,30 16.9999578,29.5519937 16.9999578,28.9999457 L16.9999578,24.9999593 L20.9999472,24.9999593 C21.5519943,24.9999593 21.9999683,24.5519212 21.9999683,24.0000317 C21.9999683,23.4479837 21.5519627,22.9999774 20.9999472,22.9999774 L16.9999894,22.9999774 L16.9999894,20.8979181 C21.4939858,20.3939308 25,16.6279339 25,11.9999185 C25,7.02999774 20.9700083,3 15.9999366,3 Z M15.9999525,5 C19.8599217,5 23,8.14010993 23,11.9999208 C23,15.8599217 19.8599217,19 15.9999525,19 C12.1400783,19 9,15.8599217 9,11.9999208 C9,8.14010993 12.1400783,5 15.9999525,5 Z" id="形状" fill="#FF87C5" fill-rule="nonzero"></path>
                    </g>
                </g>
            </g>
        </g>
    </g>
</svg>